<svg width="257" height="154" viewBox="0 0 257 154" fill="none" xmlns="http://www.w3.org/2000/svg">
<path d="M151.24 154C151.24 147.575 151.173 141.184 151.274 134.759C151.308 131.432 151.614 128.17 154.091 125.469C156.875 122.438 162.271 121.219 166.717 122.8C170.689 124.217 173.404 128.006 173.54 132.223C173.607 134.265 173.709 136.275 173.268 138.285C172.589 141.283 171.096 143.391 168.279 145.236C164.647 147.608 161.253 147.081 157.621 146.093C156.739 145.862 155.958 145.236 155.008 144.742V154H151.24ZM169.874 134.595C169.942 132.058 169.501 129.686 168.075 127.478C166.174 124.513 159.827 123.723 157.214 127.017C154.261 130.707 154.125 137.197 156.433 141.118C158.979 145.467 165.563 145.467 168.381 141.25C169.738 139.207 169.806 136.901 169.874 134.595Z" fill="white"/>
<path d="M256.966 142.074C254.386 146.884 249.872 147.114 245.155 146.851C243.933 146.785 242.643 146.818 241.455 146.291C240.369 145.829 239.724 144.38 240.301 143.424C240.742 142.733 241.217 143.326 241.625 143.49C244.408 144.512 247.225 144.775 250.11 143.984C252.011 143.457 253.368 142.337 253.334 140.262C253.3 138.45 252.146 137.395 250.585 136.638C248.006 135.386 245.256 134.43 242.88 132.783C239.758 130.641 239.724 125.93 242.914 123.92C246.818 121.449 251.06 121.878 255.235 123.097C256.593 123.492 255.608 124.678 255.54 125.403C255.473 126.194 254.76 125.568 254.352 125.502C251.637 124.975 248.922 124.217 246.173 125.271C244.849 125.798 244.001 126.688 243.865 128.072C243.729 129.422 244.408 130.411 245.63 131.004C247.904 132.091 250.212 133.178 252.52 134.265C254.352 135.122 255.948 136.242 256.559 138.252C256.593 138.351 256.83 138.351 257 138.417V142.074H256.966Z" fill="white"/>
<path d="M68.3908 52.2297C76.1293 53.2839 82.2726 56.6115 86.0061 63.3984C88.5516 68.0438 89.1286 73.1504 88.8911 78.323C88.7213 82.1447 88.1783 85.9335 86.4812 89.4258C83.3247 96.015 77.4869 99.4414 70.6309 101.484C63.7748 103.527 56.7491 104.054 49.6215 104.317C34.0766 104.91 18.4978 104.383 2.95285 104.581C0.135763 104.614 0 104.449 0 101.682C0 68.7357 0 35.7896 0 2.8105C0 0.273655 0.203645 0.0430317 2.78315 0.0430317C17.3098 0.0430317 31.8704 -0.0887528 46.3971 0.108924C54.1356 0.207762 61.8741 0.767846 69.3411 2.8764C73.8553 4.16129 78.2336 5.84155 81.8314 9.07027C85.8364 12.6284 87.8389 17.1091 88.5856 22.1169C89.3323 27.2565 89.3323 32.4291 87.6352 37.4698C84.9539 45.5087 79.0821 50.0882 70.8006 52.0649C70.0199 52.2297 69.2054 52.1638 68.3908 52.2297ZM17.4456 52.2626C17.4456 66.1 17.4795 79.9044 17.4116 93.7418C17.4116 95.1584 17.6492 95.6856 19.3123 95.6856C30.2073 95.6197 41.1023 95.5867 51.9974 95.6526C58.9552 95.6856 66.7616 90.7107 69.5108 84.0886C72.3619 77.1699 71.8188 70.4489 66.9313 64.4197C64.3518 61.2239 61.0935 58.9507 56.9527 57.8634C53.1513 56.8751 49.316 56.7433 45.4468 56.8421C44.1231 56.8751 43.5461 56.3809 43.58 55.096C43.614 53.3828 43.6819 51.6696 43.5461 49.9564C43.4103 48.2102 44.3267 47.6831 45.888 47.6502C47.8226 47.6172 49.7573 47.6502 51.6919 47.6502C56.817 47.6831 61.1953 45.8711 64.8949 42.5106C71.683 36.3167 73.2104 26.2681 68.3568 18.5587C64.0803 11.7718 57.5637 8.77375 49.4179 8.83964C39.5071 8.90553 29.5625 8.90553 19.6517 8.83964C17.9208 8.83964 17.3777 9.20205 17.3777 10.9482C17.5135 24.7197 17.4456 38.4911 17.4456 52.2626Z" fill="white"/>
<path d="M254.489 95.8832C255.439 96.0479 255.812 96.6409 255.778 97.5305C255.778 99.4084 255.744 101.286 255.778 103.164C255.812 104.317 255.201 104.746 254.115 104.746C252.927 104.746 251.705 104.746 250.517 104.746C237.247 104.746 223.942 104.68 210.671 104.746C202.322 104.812 194.922 98.9471 193.327 90.9412C193.259 90.5459 193.124 90.1505 192.886 89.7222C192.377 93.511 190.612 96.575 187.965 99.3096C184.604 102.769 180.396 104.449 175.644 104.515C163.629 104.647 151.58 104.68 139.565 104.515C131.725 104.383 124.869 99.0789 123.07 91.6002C122.628 89.7552 122.493 87.9102 122.493 86.0323C122.527 75.2918 122.493 64.5843 122.493 53.8439C122.493 45.6403 128.602 38.2275 136.884 36.3495C139.463 35.7894 140.108 36.2836 140.108 38.7546C140.108 53.1191 140.244 67.5166 140.074 81.8811C139.972 89.0963 143.943 92.8521 149.476 94.4006C156.196 96.2785 162.95 96.2126 169.365 92.918C172.827 91.1389 174.762 88.3385 175.169 84.5167C175.203 84.0884 175.305 83.6602 175.372 83.2319C175.406 82.8694 175.508 82.4741 175.508 82.0787C175.508 67.4507 175.508 52.7896 175.508 38.1616C175.508 37.7333 175.44 37.272 175.406 36.8437C176.425 36.086 177.647 36.3495 178.631 36.5472C183.858 37.6015 187.727 40.5996 190.442 44.9485C191.596 46.7934 192.445 48.7702 192.682 51.1094C193.293 50.6811 193.225 50.1539 193.327 49.6598C195.126 42.148 200.014 37.9639 206.937 36.2507C208.567 35.8553 210.332 35.8553 212.029 35.8553C225.707 35.8224 239.385 35.8224 253.063 35.8224C255.439 35.8224 255.71 36.1189 255.71 38.3592C255.71 39.8418 255.676 41.3573 255.71 42.8399C255.778 44.1907 255.201 44.6519 253.776 44.6519C243.458 44.619 233.14 44.5861 222.822 44.6519C219.835 44.6519 217.052 45.1461 214.506 47.0241C211.418 49.2644 208.804 55.03 211.587 59.9719C213.726 63.7278 216.95 65.6716 221.396 65.6716C224.587 65.6716 227.777 65.6716 230.968 65.6716C232.902 65.6716 233.276 66.0669 233.276 67.879C233.276 69.5263 233.174 71.2065 233.309 72.8538C233.445 74.4682 232.699 74.8635 231.239 74.8306C228.32 74.7976 225.435 74.8306 222.516 74.8306C219.801 74.8306 217.255 75.3577 214.947 76.8732C210.807 79.5748 209.212 85.3404 211.418 89.6563C213.013 92.8192 215.491 94.8618 219.02 95.6855C219.224 95.7514 219.428 95.8832 219.631 95.8832C231.307 95.9161 242.881 95.9161 254.489 95.8832ZM193.022 56.1501V84.6156C194.04 81.1562 195.567 77.9934 198.215 75.3907C200.93 72.722 204.256 71.3054 207.922 70.3829C199.946 68.5708 195.092 63.8266 193.022 56.1501Z" fill="white"/>
<path d="M97.0029 52.3283C97.0029 35.7564 97.0029 19.1515 97.0029 2.57964C97.0029 0.306354 97.3084 0.0427856 99.6503 0.0427856C103.655 0.0427856 107.626 0.0427856 111.631 0.0427856C113.77 0.0427856 114.279 0.536977 114.279 2.54669C114.279 14.1437 114.381 25.7737 114.245 37.3707C114.075 49.9232 114.075 62.4427 114.177 74.9952C114.245 83.8906 114.211 92.7861 114.279 101.682C114.313 104.35 114.041 104.581 111.292 104.581C107.287 104.581 103.316 104.581 99.3109 104.581C97.2745 104.581 96.9351 104.251 96.9351 102.275C96.969 85.6039 96.969 68.9661 97.0029 52.3283Z" fill="white"/>
<path d="M205.614 135.451C203 135.451 200.387 135.484 197.739 135.418C196.857 135.418 196.619 135.583 196.687 136.539C197.162 141.546 200.285 144.38 205.512 144.38C206.021 144.38 206.53 144.446 207.039 144.38C207.854 144.281 208.465 144.248 208.397 145.401C208.329 146.258 208.498 147.048 207.107 146.917C205.07 146.719 203.034 147.147 200.998 146.554C196.993 145.368 194.413 142.93 193.497 138.812C192.444 134.101 192.818 129.686 196.042 125.831C198.995 122.306 203 121.548 207.378 122.536C211.214 123.393 214.031 126.688 214.608 130.674C215.287 135.418 215.287 135.418 210.365 135.418C208.77 135.418 207.209 135.418 205.614 135.451ZM204.018 132.783C206.055 132.783 208.125 132.816 210.162 132.783C210.603 132.783 211.282 133.079 211.282 132.223C211.18 129.027 209.652 125.699 205.919 124.909C201.846 124.052 197.637 127.116 196.823 131.333C196.585 132.519 196.755 132.882 198.045 132.849C200.047 132.717 202.05 132.783 204.018 132.783Z" fill="white"/>
<path d="M114.109 135.451C111.428 135.451 108.746 135.451 106.065 135.451C105.556 135.451 104.843 135.253 104.945 136.209C105.318 139.372 106.336 142.238 109.459 143.754C111.394 144.709 113.566 144.413 115.67 144.347C116.179 144.347 116.79 144.083 116.654 144.907C116.553 145.566 117.231 146.752 116.077 146.818C113.6 146.916 111.088 147.18 108.61 146.356C104.809 145.071 102.637 142.568 101.788 138.812C100.77 134.265 101.042 129.949 104.096 126.127C107.015 122.437 110.986 121.548 115.365 122.536C119.539 123.459 121.881 126.292 122.798 130.312C123.918 135.155 123.68 135.451 118.691 135.451C117.198 135.418 115.636 135.418 114.109 135.451ZM112.208 132.783C114.313 132.783 116.417 132.783 118.521 132.783C118.996 132.783 119.675 132.914 119.607 132.124C119.404 129.06 118.046 125.567 114.007 124.843C109.731 124.052 105.182 127.742 105.013 132.025C104.979 132.815 105.386 132.783 105.895 132.783C108 132.75 110.104 132.783 112.208 132.783Z" fill="white"/>
<path d="M146.115 122.8C143.604 126.16 141.194 129.455 138.682 132.618C137.901 133.606 138.003 134.232 138.716 135.155C141.431 138.746 144.079 142.403 146.76 146.06C143.943 146.85 143.06 146.554 141.533 144.379C139.7 141.711 137.868 139.075 135.899 136.209C133.896 138.943 131.758 141.447 130.061 144.215C128.771 146.29 127.21 146.719 124.8 146.159C126.667 143.589 128.5 141.085 130.299 138.581C131.215 137.329 132.098 136.044 133.116 134.825C133.795 134.034 133.625 133.474 133.048 132.684C130.536 129.422 128.059 126.127 125.513 122.767C128.126 122.108 129.925 122.668 131.283 124.974C132.607 127.215 134.27 129.224 135.899 131.465C137.596 129.158 139.293 127.083 140.685 124.809C142.008 122.833 143.604 122.141 146.115 122.8Z" fill="white"/>
<path d="M219.801 143.029C222.957 144.347 226.046 144.874 229.236 144.017C230.865 143.589 232.291 142.732 232.461 140.822C232.664 138.713 231.986 137.725 229.881 136.67C227.404 135.418 224.824 134.397 222.414 133.013C218.307 130.641 219.427 125.073 222.957 123.426C226.793 121.614 230.56 122.042 234.395 123.096C235.821 123.492 234.87 124.612 234.837 125.337C234.769 126.259 234.056 125.6 233.683 125.502C230.967 124.974 228.252 124.25 225.469 125.238C224.043 125.732 223.297 126.655 223.059 128.137C222.855 129.62 223.67 130.411 224.824 131.004C227.37 132.256 229.949 133.376 232.461 134.661C235.481 136.176 236.703 138.746 235.991 141.942C235.447 144.479 233.343 145.665 231.137 146.356C227.573 147.477 223.942 147.048 220.378 146.258C219.529 146.06 219.292 145.599 219.495 144.808C219.631 144.248 219.699 143.688 219.801 143.029Z" fill="white"/>
<path d="M178.766 139.701C178.766 135.912 178.597 132.124 179.92 128.434C181.142 125.007 185.283 122.042 189.05 122.141C189.695 122.174 190.069 122.339 189.933 122.965C189.763 123.591 190.612 124.645 189.254 124.777C184.536 125.304 182.771 129.62 182.568 133.277C182.364 137.197 182.398 141.118 182.466 145.006C182.5 146.521 181.685 146.389 180.667 146.356C179.683 146.323 178.597 146.653 178.732 144.973C178.868 143.259 178.766 141.48 178.766 139.701Z" fill="white"/>
<path d="M254.488 95.8832C242.881 95.9161 231.307 95.9161 219.699 95.9491C219.495 95.9491 219.292 95.8173 219.088 95.7514C230.696 95.7184 242.27 95.7184 253.877 95.7184C254.081 95.7184 254.285 95.8173 254.488 95.8832Z" fill="#18274B" fill-opacity="0.63"/>
<path d="M193.021 56.15C195.092 63.8264 199.945 68.5707 207.922 70.3827C204.222 71.3052 200.896 72.7219 198.214 75.3905C195.567 77.9933 194.04 81.1561 193.021 84.6154V56.15Z" fill="#4DC0DF"/>
</svg>
